<svg display="none"
  xmlns="http://www.w3.org/2000/svg">
  <symbol id="skype" viewBox="0 0 448 512">
    <g>
      <path fill="#ffffff" d="M424.7 299.8c2.9-14 4.7-28.9 4.7-43.8 0-113.5-91.9-205.3-205.3-205.3-14.9 0-29.7 1.7-43.8 4.7C161.3 40.7 137.7 32 112 32 50.2 32 0 82.2 0 144c0 25.7 8.7 49.3 23.3 68.2-2.9 14-4.7 28.9-4.7 43.8 0 113.5 91.9 205.3 205.3 205.3 14.9 0 29.7-1.7 43.8-4.7 19 14.6 42.6 23.3 68.2 23.3 61.8 0 112-50.2 112-112 .1-25.6-8.6-49.2-23.2-68.1zm-194.6 91.5c-65.6 0-120.5-29.2-120.5-65 0-16 9-30.6 29.5-30.6 31.2 0 34.1 44.9 88.1 44.9 25.7 0 42.3-11.4 42.3-26.3 0-18.7-16-21.6-42-28-62.5-15.4-117.8-22-117.8-87.2 0-59.2 58.6-81.1 109.1-81.1 55.1 0 110.8 21.9 110.8 55.4 0 16.9-11.4 31.8-30.3 31.8-28.3 0-29.2-33.5-75-33.5-25.7 0-42 7-42 22.5 0 19.8 20.8 21.8 69.1 33 41.4 9.3 90.7 26.8 90.7 77.6 0 59.1-57.1 86.5-112 86.5z"></path>
    </g>
  </symbol>
  <symbol id="flower" viewBox="0 0 512 512">
    <g>
      <path fill="#ffffff" d="m448.689 275.718c-12.835-7.41-30.955-14.132-50.703-19.719 19.748-5.586 37.868-12.309 50.703-19.719 37.852-21.854 50.867-70.428 29.013-108.28s-70.428-50.867-108.28-29.013c-12.835 7.41-27.718 19.742-42.43 34.052 5.036-19.897 8.275-38.951 8.275-53.772 0-43.708-35.559-79.267-79.267-79.267s-79.267 35.559-79.267 79.267c0 14.822 3.239 33.878 8.276 53.775-14.714-14.311-29.597-26.644-42.433-34.054-37.852-21.854-86.426-8.838-108.28 29.015s-8.838 86.426 29.015 108.28c12.835 7.41 30.955 14.132 50.704 19.719-19.749 5.586-37.869 12.309-50.704 19.719-37.852 21.853-50.867 70.427-29.013 108.279s70.428 50.867 108.28 29.013c12.835-7.41 27.718-19.742 42.431-34.053-5.037 19.897-8.275 38.952-8.275 53.772-.001 43.709 35.558 79.268 79.266 79.268s79.267-35.559 79.267-79.267c0-14.822-3.239-33.877-8.276-53.775 14.714 14.311 29.597 26.644 42.433 34.054 37.852 21.854 86.426 8.838 108.28-29.015 21.854-37.852 8.838-86.426-29.015-108.279zm-370.378-65.416c-23.527-13.583-31.616-43.773-18.034-67.299s43.773-31.616 67.299-18.033c19.412 11.207 50.656 41.532 75.123 72.357-6.04 5.49-11.231 11.911-15.347 19.041s-7.083 14.836-8.816 22.812c-38.929-5.777-80.813-17.671-100.225-28.878zm49.267 176.731c-23.526 13.583-53.717 5.493-67.299-18.033-13.583-23.526-5.494-53.717 18.033-67.3 19.412-11.208 61.296-23.102 100.226-28.879 1.734 7.976 4.7 15.682 8.816 22.812s9.307 13.552 15.347 19.041c-24.468 30.826-55.711 61.151-75.123 72.359zm128.422 94.967c-27.166 0-49.267-22.101-49.267-49.267 0-22.415 10.641-64.635 25.103-101.237 7.774 2.486 15.931 3.771 24.164 3.771s16.39-1.284 24.164-3.771c14.462 36.603 25.103 78.822 25.103 101.237 0 27.166-22.101 49.267-49.267 49.267zm0-176.733c-27.166 0-49.267-22.101-49.267-49.267s22.101-49.267 49.267-49.267 49.267 22.101 49.267 49.267-22.101 49.267-49.267 49.267zm24.164-124.763c-7.774-2.486-15.931-3.771-24.164-3.771s-16.39 1.284-24.164 3.771c-14.462-36.602-25.103-78.821-25.103-101.237 0-27.166 22.101-49.267 49.267-49.267s49.267 22.101 49.267 49.267c0 22.416-10.641 64.635-25.103 101.237zm104.258-55.537c23.526-13.583 53.717-5.493 67.299 18.033 13.583 23.526 5.494 53.717-18.033 67.3-19.413 11.208-61.296 23.103-100.226 28.879-1.734-7.976-4.7-15.682-8.816-22.812s-9.307-13.552-15.347-19.041c24.467-30.826 55.71-61.151 75.123-72.359zm67.301 244.031c-13.583 23.526-43.773 31.616-67.299 18.034-19.413-11.208-50.656-41.532-75.123-72.357 6.04-5.49 11.231-11.911 15.347-19.041s7.083-14.836 8.816-22.812c38.929 5.776 80.813 17.67 100.226 28.878 23.526 13.581 31.616 43.771 18.033 67.298z"/>
    </g>
  </symbol>
  <symbol id="at-solid" viewBox="0 0 512 512">
    <g>
      <path fill="#ffffff" d="M256 8C118.941 8 8 118.919 8 256c0 137.059 110.919 248 248 248 48.154 0 95.342-14.14 135.408-40.223 12.005-7.815 14.625-24.288 5.552-35.372l-10.177-12.433c-7.671-9.371-21.179-11.667-31.373-5.129C325.92 429.757 291.314 440 256 440c-101.458 0-184-82.542-184-184S154.542 72 256 72c100.139 0 184 57.619 184 160 0 38.786-21.093 79.742-58.17 83.693-17.349-.454-16.91-12.857-13.476-30.024l23.433-121.11C394.653 149.75 383.308 136 368.225 136h-44.981a13.518 13.518 0 0 0-13.432 11.993l-.01.092c-14.697-17.901-40.448-21.775-59.971-21.775-74.58 0-137.831 62.234-137.831 151.46 0 65.303 36.785 105.87 96 105.87 26.984 0 57.369-15.637 74.991-38.333 9.522 34.104 40.613 34.103 70.71 34.103C462.609 379.41 504 307.798 504 232 504 95.653 394.023 8 256 8zm-21.68 304.43c-22.249 0-36.07-15.623-36.07-40.771 0-44.993 30.779-72.729 58.63-72.729 22.292 0 35.601 15.241 35.601 40.77 0 45.061-33.875 72.73-58.161 72.73z"></path>
    </g>
  </symbol>
  <symbol id="phone-solid" viewBox="0 0 512 512">
    <g>
      <path fill="#ffffff" d="M493.4 24.6l-104-24c-11.3-2.6-22.9 3.3-27.5 13.9l-48 112c-4.2 9.8-1.4 21.3 6.9 28l60.6 49.6c-36 76.7-98.9 140.5-177.2 177.2l-49.6-60.6c-6.8-8.3-18.2-11.1-28-6.9l-112 48C3.9 366.5-2 378.1.6 389.4l24 104C27.1 504.2 36.7 512 48 512c256.1 0 464-207.5 464-464 0-11.2-7.7-20.9-18.6-23.4z"></path>
    </g>
  </symbol>
  <symbol id="twitter" viewBox="0 0 512 512">
    <g>
      <path fill="#445162" d="M459.37 151.716c.325 4.548.325 9.097.325 13.645 0 138.72-105.583 298.558-298.558 298.558-59.452 0-114.68-17.219-161.137-47.106 8.447.974 16.568 1.299 25.34 1.299 49.055 0 94.213-16.568 130.274-44.832-46.132-.975-84.792-31.188-98.112-72.772 6.498.974 12.995 1.624 19.818 1.624 9.421 0 18.843-1.3 27.614-3.573-48.081-9.747-84.143-51.98-84.143-102.985v-1.299c13.969 7.797 30.214 12.67 47.431 13.319-28.264-18.843-46.781-51.005-46.781-87.391 0-19.492 5.197-37.36 14.294-52.954 51.655 63.675 129.3 105.258 216.365 109.807-1.624-7.797-2.599-15.918-2.599-24.04 0-57.828 46.782-104.934 104.934-104.934 30.213 0 57.502 12.67 76.67 33.137 23.715-4.548 46.456-13.32 66.599-25.34-7.798 24.366-24.366 44.833-46.132 57.827 21.117-2.273 41.584-8.122 60.426-16.243-14.292 20.791-32.161 39.308-52.628 54.253z"></path>
    </g>
  </symbol>
  <symbol id="facebook" viewBox="0 0 320 512">
    <g>
      <path fill="#445162" d="M279.14 288l14.22-92.66h-88.91v-60.13c0-25.35 12.42-50.06 52.24-50.06h40.42V6.26S260.43 0 225.36 0c-73.22 0-121.08 44.38-121.08 124.72v70.62H22.89V288h81.39v224h100.17V288z"></path>
    </g>
  </symbol>
  <symbol id="linkedin" viewBox="0 0 448 512">
    <g>
      <path fill="#445162" d="M100.28 448H7.4V148.9h92.88zM53.79 108.1C24.09 108.1 0 83.5 0 53.8a53.79 53.79 0 0 1 107.58 0c0 29.7-24.1 54.3-53.79 54.3zM447.9 448h-92.68V302.4c0-34.7-.7-79.2-48.29-79.2-48.29 0-55.69 37.7-55.69 76.7V448h-92.78V148.9h89.08v40.8h1.3c12.4-23.5 42.69-48.3 87.88-48.3 94 0 111.28 61.9 111.28 142.3V448z"></path>
    </g>
  </symbol>
  <symbol id="google" viewBox="0 0 488 512">
    <g>
      <path fill="#445162" d="M488 261.8C488 403.3 391.1 504 248 504 110.8 504 0 393.2 0 256S110.8 8 248 8c66.8 0 123 24.5 166.3 64.9l-67.5 64.9C258.5 52.6 94.3 116.6 94.3 256c0 86.5 69.1 156.6 153.7 156.6 98.2 0 135-70.4 140.8-106.9H248v-85.3h236.1c2.3 12.7 3.9 24.9 3.9 41.4z"></path>
    </g>
  </symbol>
  <symbol id="youtube" viewBox="0 0 576 512">
    <g>
      <path fill="#445162" d="M549.655 124.083c-6.281-23.65-24.787-42.276-48.284-48.597C458.781 64 288 64 288 64S117.22 64 74.629 75.486c-23.497 6.322-42.003 24.947-48.284 48.597-11.412 42.867-11.412 132.305-11.412 132.305s0 89.438 11.412 132.305c6.281 23.65 24.787 41.5 48.284 47.821C117.22 448 288 448 288 448s170.78 0 213.371-11.486c23.497-6.321 42.003-24.171 48.284-47.821 11.412-42.867 11.412-132.305 11.412-132.305s0-89.438-11.412-132.305zm-317.51 213.508V175.185l142.739 81.205-142.739 81.201z"></path>
    </g>
  </symbol>
  <symbol id="plus" viewBox="0 0 448 512">
    <g>
      <path fill="#445161" d="M400 32H48C21.5 32 0 53.5 0 80v352c0 26.5 21.5 48 48 48h352c26.5 0 48-21.5 48-48V80c0-26.5-21.5-48-48-48zm-32 252c0 6.6-5.4 12-12 12h-92v92c0 6.6-5.4 12-12 12h-56c-6.6 0-12-5.4-12-12v-92H92c-6.6 0-12-5.4-12-12v-56c0-6.6 5.4-12 12-12h92v-92c0-6.6 5.4-12 12-12h56c6.6 0 12 5.4 12 12v92h92c6.6 0 12 5.4 12 12v56z"></path>
    </g>
  </symbol>
</svg>